<?xml version="1.0" encoding="utf-8"?>
<!-- Generator: Adobe Illustrator 16.0.3, SVG Export Plug-In . SVG Version: 6.00 Build 0)  -->
<!DOCTYPE svg PUBLIC "-//W3C//DTD SVG 1.1//EN" "http://www.w3.org/Graphics/SVG/1.1/DTD/svg11.dtd">
<svg version="1.1" id="Calque_3" xmlns="http://www.w3.org/2000/svg" xmlns:xlink="http://www.w3.org/1999/xlink" x="0px" y="0px"
	 width="450px" height="240px" viewBox="0 0 450 240" enable-background="new 0 0 450 240" xml:space="preserve">
<g>
	<path fill-rule="evenodd" clip-rule="evenodd" d="M331.159,190.247c0-17.451,0-34.764,0-52.22c0.448-0.026,0.861-0.07,1.273-0.07
		c16.073,0.019,32.146-0.077,48.219,0.1c12.469,0.137,24.867,1.219,37.005,4.317c6.207,1.583,12.203,3.712,17.497,7.442
		c4.143,2.92,7.271,6.596,8.291,11.726c1.251,6.291-1.025,11.342-5.651,15.471c-4.966,4.433-10.961,6.924-17.238,8.797
		c-10.993,3.276-22.287,4.421-33.701,4.466c-18.184,0.075-36.369,0.04-54.552,0.048
		C331.964,190.323,331.626,190.279,331.159,190.247z M373.734,154.327c0,6.848,0,13.503,0,20.19
		c0.237,0.046,0.401,0.111,0.562,0.102c4.682-0.293,9.38-0.428,14.036-0.943c3.424-0.379,6.771-1.338,9.683-3.342
		c4.063-2.796,4.391-7.922,0.611-11.092c-1.196-1.003-2.641-1.824-4.104-2.378C387.858,154.343,380.861,154.397,373.734,154.327z"/>
	<path fill-rule="evenodd" clip-rule="evenodd" d="M298.425,165.067c0-0.875,0-1.413,0-1.951c0-7.887,0.025-15.772-0.026-23.657
		c-0.007-1.192,0.33-1.509,1.52-1.502c8.316,0.054,16.634,0.028,24.95,0.029c0.462,0,0.925,0,1.473,0c0,17.482,0,34.824,0,52.306
		c-0.419,0.025-0.833,0.072-1.247,0.072c-8.488,0.004-16.978-0.009-25.466,0.02c-0.85,0.003-1.432-0.261-2.007-0.881
		c-7.592-8.18-15.209-16.335-22.81-24.504c-0.309-0.332-0.526-0.75-0.787-1.128c-0.133,0.087-0.267,0.173-0.399,0.259
		c0,8.677,0,17.354,0,26.133c-9.379,0-18.615,0-27.959,0c0-17.373,0-34.743,0-52.214c0.448-0.021,0.866-0.062,1.285-0.063
		c8.488-0.002,16.978,0.015,25.465-0.02c0.947-0.004,1.58,0.276,2.218,0.981c7.577,8.367,15.186,16.705,22.787,25.05
		C297.669,164.27,297.926,164.535,298.425,165.067z"/>
	<path fill-rule="evenodd" clip-rule="evenodd" d="M200.39,191.163c-9.048-0.127-17.867-1.4-26.112-5.38
		c-5.466-2.64-10.142-6.22-13.067-11.696c-4.64-8.687-2.622-18.947,5.083-25.956c5.41-4.92,11.902-7.739,18.934-9.283
		c13.504-2.966,26.805-2.428,39.671,3.031c5.355,2.271,10.042,5.537,13.443,10.371c6.313,8.971,4.847,20.526-3.548,28.16
		c-4.734,4.307-10.415,6.804-16.508,8.484C212.43,190.51,206.442,191.091,200.39,191.163z M200.51,154.349
		c-3.713,0.1-6.982,0.728-9.854,2.707c-5.912,4.072-5.734,11.859,0.58,15.269c6.172,3.333,12.654,3.316,18.785-0.161
		c5.944-3.369,6.125-10.902,0.588-14.915C207.503,154.998,203.934,154.391,200.51,154.349z"/>
	<path fill-rule="evenodd" clip-rule="evenodd" d="M40.405,163.329c1.081,0.479,2.074,0.862,3.017,1.346
		c4.409,2.26,7.031,5.743,7.173,10.818c0.145,5.127-2.114,8.96-6.51,11.52c-3.855,2.242-8.11,3.164-12.509,3.213
		c-9.781,0.107-19.564,0.075-29.345,0.095c-0.25,0-0.502-0.06-0.815-0.098c0-17.394,0-34.739,0-52.152
		c0.271-0.041,0.515-0.109,0.76-0.108c8.402,0.003,16.806-0.02,25.208,0.036c4.067,0.026,8.088,0.503,11.921,1.973
		c6.897,2.646,10.216,9.212,8.123,16.028c-0.966,3.146-2.925,5.419-6.001,6.68c-0.239,0.098-0.477,0.199-0.708,0.313
		C40.648,163.028,40.603,163.112,40.405,163.329z M20.768,178.061c2.701-0.303,5.315-0.417,7.842-0.942
		c1.896-0.393,2.755-1.9,2.727-3.742c-0.027-1.757-0.964-3.022-2.774-3.61c-2.544-0.828-5.161-0.544-7.795-0.577
		C20.768,172.125,20.768,174.896,20.768,178.061z M20.797,150.491c0,2.669,0,5.087,0,7.837c2.13-0.284,4.153-0.382,6.081-0.863
		c1.569-0.392,2.237-1.83,2.126-3.579c-0.099-1.558-0.938-2.718-2.562-2.974C24.598,150.622,22.708,150.621,20.797,150.491z"/>
	<path fill-rule="evenodd" clip-rule="evenodd" d="M76.864,157.281c5.854,0,11.528,0,17.291,0c0,4.55,0,8.999,0,13.595
		c-5.773,0-11.482,0-17.36,0c0,1.593-0.052,3.049,0.052,4.494c0.017,0.235,0.717,0.601,1.104,0.604
		c4.611,0.043,9.222,0.03,13.831,0.032c1.542,0,3.083,0,4.71,0c0,4.811,0,9.48,0,14.234c-14.149,0-28.263,0-42.479,0
		c0-17.367,0-34.706,0-52.165c13.896,0,27.82,0,41.83,0c0,4.688,0,9.358,0,14.174c-6.356,0-12.628,0-18.979,0
		C76.864,153.965,76.864,155.535,76.864,157.281z"/>
	<path fill-rule="evenodd" clip-rule="evenodd" d="M96.617,137.954c9.555,0,18.777-0.013,27.999,0.039
		c0.451,0.004,1.068,0.482,1.319,0.91c2.288,3.9,4.503,7.845,6.768,11.76c0.216,0.373,0.616,0.64,0.932,0.955
		c0.276-0.351,0.609-0.671,0.82-1.058c2.167-3.965,4.302-7.949,6.493-11.899c0.185-0.333,0.711-0.674,1.08-0.675
		c9.136-0.032,18.271-0.02,27.408-0.011c0.069,0,0.138,0.069,0.356,0.186c-0.313,0.412-0.599,0.811-0.906,1.192
		c-7.383,9.157-14.777,18.307-22.127,27.49c-0.437,0.547-0.729,1.373-0.734,2.073c-0.055,6.55-0.032,13.101-0.031,19.65
		c0,0.513,0,1.026,0,1.648c-8.331,0-16.572,0-24.917,0c-0.022-0.377-0.063-0.748-0.063-1.12c-0.003-6.594-0.026-13.188,0.023-19.782
		c0.008-1.11-0.302-1.952-1-2.798c-7.516-9.104-15.003-18.23-22.497-27.355C97.278,138.845,97.04,138.51,96.617,137.954z"/>
	<path fill-rule="evenodd" clip-rule="evenodd" d="M410.249,83.936c4.798,5.83,9.524,11.573,14.359,17.45
		c2.707-3.146,5.335-6.199,7.742-8.996c1.943,1.768,3.845,3.497,5.813,5.288c-2.842,3.375-5.583,6.629-8.422,10
		c4.039,5.041,8.057,10.057,12.262,15.307c-3.596,0-6.893,0.024-10.188-0.036c-0.364-0.007-0.79-0.457-1.066-0.798
		c-2.248-2.769-4.467-5.562-6.717-8.376c-1.085,1.059-2.063,2.066-3.098,3.015c-5.438,4.998-11.636,8.113-19.244,7.637
		c-13.066-0.814-22.11-12.872-18.85-25.117c1.022-3.845,3.26-6.938,6.239-9.452c2.99-2.524,6.146-4.851,9.34-7.35
		c-0.804-0.965-1.661-1.959-2.477-2.987c-2.359-2.973-4.286-6.187-4.791-10.02c-1.318-10.015,5.53-17.438,15.868-17.287
		c3.623,0.053,6.993,0.956,9.975,3.056c6.272,4.417,7.612,12.902,3.1,19.506c-2.195,3.217-5.177,5.629-8.232,7.958
		C411.354,83.122,410.838,83.499,410.249,83.936z M403.427,88.622c-3.225,2.587-6.398,5.004-9.412,7.606
		c-1.671,1.441-2.857,3.331-3.437,5.518c-2.064,7.815,6.34,16.378,14.58,14.833c5.804-1.088,9.684-5.09,13.7-9.011
		C413.751,101.3,408.728,95.131,403.427,88.622z M405.449,78.346c2.667-2.42,5.277-4.421,7.426-6.833
		c2.54-2.849,2.428-7.223,0.194-9.884c-2.203-2.625-6.861-3.419-10.096-1.723c-3.621,1.899-5.136,6.118-3.139,9.968
		C401.323,72.744,403.404,75.307,405.449,78.346z"/>
	<path fill-rule="evenodd" clip-rule="evenodd" d="M91.351,122.918c0-23.097,0-46.058,0-69.057c0.183-0.069,0.336-0.179,0.487-0.176
		c6.804,0.126,13.635-0.072,20.404,0.484c8.2,0.674,15.687,3.578,21.894,9.203c5.603,5.078,8.691,11.502,9.653,18.936
		c1.028,7.945,0.266,15.676-3.505,22.887c-4.264,8.153-11.207,12.992-19.821,15.678c-4.182,1.302-8.477,1.989-12.846,2.067
		c-5.127,0.092-10.255,0.043-15.384,0.05C91.981,122.989,91.731,122.95,91.351,122.918z M99.937,115.085
		c6.127,0.175,12.032-0.198,17.777-1.968c5.582-1.718,10.408-4.574,13.746-9.521c3.425-5.076,4.359-10.803,4.115-16.777
		c-0.438-10.714-5.27-18.458-15.477-22.432c-6.381-2.485-13.063-2.958-19.829-2.75c-0.111,0.004-0.217,0.115-0.333,0.18
		C99.937,79.535,99.937,97.234,99.937,115.085z"/>
	<path fill-rule="evenodd" clip-rule="evenodd" d="M1.289,122.889c0-23.03,0-46.027,0-69.029c0.161-0.074,0.274-0.175,0.384-0.17
		c5.591,0.218,11.188,0.333,16.767,0.73c1.935,0.137,3.862,0.854,5.718,1.516c12.158,4.336,12.814,19.307,7.75,25.97
		c-1.169,1.538-2.717,2.789-4.102,4.184c2.402,0.572,4.735,1.674,6.795,3.364c9.492,7.785,9.505,25.256-4.49,31.144
		c-3.38,1.421-6.902,2.244-10.542,2.321c-5.86,0.124-11.723,0.061-17.585,0.07C1.775,122.987,1.569,122.93,1.289,122.889z
		 M9.978,91.342c0,8.088,0,15.982,0,23.731c3.553,0,6.996,0.089,10.43-0.043c1.437-0.057,2.893-0.47,4.275-0.919
		c5.241-1.701,7.941-5.458,7.966-10.923c0.023-5.096-2.657-8.667-7.818-10.46C20.003,91.049,15.016,91.295,9.978,91.342z
		 M9.932,84.731c3.376-0.415,6.611-0.565,9.727-1.257c3.83-0.851,6.275-3.45,6.789-7.388c0.295-2.266,0.255-4.642-0.071-6.906
		c-0.391-2.722-1.985-4.831-4.528-6.07c-3.771-1.84-7.81-1.704-11.917-1.668C9.932,69.133,9.932,76.686,9.932,84.731z"/>
	<path fill-rule="evenodd" clip-rule="evenodd" d="M168.445,53.803c3.951,0,7.816-0.063,11.678,0.018
		c3.809,0.081,7.514,0.765,11.125,2.059c12.191,4.371,13.161,19.84,7.218,26.795c-1.045,1.223-2.356,2.216-3.561,3.332
		c-0.005-0.005,0.072,0.125,0.173,0.146c7.624,1.616,13.319,9.422,13.266,17.612c-0.057,8.822-5.053,15.372-14.018,17.825
		c-2.918,0.799-6.004,1.21-9.033,1.331c-5.333,0.214-10.682,0.067-16.024,0.069c-0.25,0-0.5-0.034-0.825-0.058
		C168.445,99.848,168.445,76.831,168.445,53.803z M177.004,115.275c2.704,0,5.283,0.051,7.858-0.014
		c2.811-0.072,5.562-0.503,8.186-1.602c4.346-1.818,6.665-5.366,6.712-10.357c0.048-4.769-2.094-8.283-6.505-9.997
		c-2.258-0.878-4.695-1.503-7.1-1.739c-3.005-0.295-6.061-0.071-9.151-0.071C177.004,99.367,177.004,107.229,177.004,115.275z
		 M176.993,84.377c3.543,0.081,6.936,0.063,10.227-0.986c3.456-1.102,5.589-3.427,6.355-6.987c0.552-2.571,0.535-5.14-0.13-7.681
		c-0.552-2.11-1.65-3.904-3.542-5.068c-3.996-2.46-8.439-2.215-12.911-2.233C176.993,69.153,176.993,76.685,176.993,84.377z"/>
	<path fill-rule="evenodd" clip-rule="evenodd" d="M309.941,53.729c2.822,0,5.561,0,8.465,0c0,9.285,0,18.521,0,27.826
		c10.967,0,21.768,0,32.757,0c0-9.266,0-18.499,0-27.811c2.926,0,5.665,0,8.508,0c0,23.054,0,46.081,0,69.18
		c-2.802,0-5.54,0-8.469,0c0-11.045,0-22.045,0-33.105c-10.994,0-21.8,0-32.737,0c0,11.015,0,21.984,0,33.063
		c-2.897,0-5.665,0-8.523,0C309.941,99.85,309.941,76.824,309.941,53.729z"/>
	<path fill-rule="evenodd" clip-rule="evenodd" d="M273.638,122.996c-3.028,0-5.741,0.045-8.448-0.046
		c-0.423-0.015-1.003-0.571-1.208-1.017c-2.331-5.042-4.62-10.104-6.874-15.181c-0.361-0.814-0.776-1.149-1.713-1.145
		c-9.738,0.038-19.477,0.037-29.216,0c-0.924-0.003-1.359,0.299-1.726,1.127c-2.25,5.08-4.573,10.126-6.826,15.204
		c-0.346,0.779-0.742,1.1-1.627,1.077c-2.62-0.063-5.242-0.022-8.083-0.022c10.964-24.111,21.847-48.044,32.855-72.253
		C251.768,74.914,262.649,98.839,273.638,122.996z M240.771,69.7c-4.154,9.507-8.154,18.663-12.202,27.93c8.24,0,16.254,0,24.418,0
		C248.915,88.319,244.906,79.155,240.771,69.7z"/>
	<path fill-rule="evenodd" clip-rule="evenodd" d="M82.383,80.95c0,2.708,0,5.271,0,7.977c-9.189,0-18.304,0-27.479,0
		c0,8.752,0,17.361,0,26.132c9.397,0,18.763,0,28.243,0c0,2.709,0,5.26,0,7.864c-12.279,0-24.499,0-36.799,0
		c0-23.067,0-46.063,0-69.159c12.254,0,24.47,0,36.798,0c0,2.542,0,5.099,0,7.813c-9.406,0-18.772,0-28.222,0
		c0,6.514,0,12.87,0,19.373C64.075,80.95,73.192,80.95,82.383,80.95z"/>
	<path fill-rule="evenodd" clip-rule="evenodd" d="M280.268,122.917c0-20.436,0-40.763,0-61.269c-5.455,0-10.812,0-16.271,0
		c0-2.728,0-5.277,0-7.906c13.692,0,27.332,0,41.08,0c0,2.572,0,5.125,0,7.811c-5.367,0-10.69,0-16.205,0
		c0,20.518,0,40.903,0,61.365C285.938,122.917,283.198,122.917,280.268,122.917z"/>
	<path fill-rule="evenodd" clip-rule="evenodd" d="M441.578,145.469c-3.923,0.014-6.964-2.989-6.997-6.909
		c-0.033-3.86,3.04-6.982,6.918-7.027c3.815-0.044,6.991,3.104,7.008,6.948C448.524,142.379,445.474,145.456,441.578,145.469z
		 M441.563,144.404c3.257-0.017,5.915-2.718,5.871-5.964c-0.043-3.187-2.722-5.806-5.919-5.787c-3.218,0.02-5.85,2.639-5.862,5.838
		C435.64,141.747,438.313,144.421,441.563,144.404z"/>
	<path fill-rule="evenodd" clip-rule="evenodd" d="M442.654,138.878c0.712,1.136,1.363,2.179,2.016,3.219
		c-0.08,0.103-0.16,0.206-0.24,0.31c-0.418-0.231-0.944-0.371-1.23-0.714c-0.55-0.654-0.907-1.471-1.454-2.128
		c-0.349-0.418-0.896-0.668-1.355-0.993c-0.125,0.093-0.248,0.188-0.373,0.282c0,0.934,0.037,1.872-0.027,2.803
		c-0.017,0.217-0.38,0.411-0.583,0.615c-0.153-0.21-0.438-0.416-0.439-0.628c-0.032-2.272-0.021-4.547-0.021-6.9
		c1.438,0,2.766-0.056,4.083,0.019c1.039,0.06,1.797,0.57,1.891,1.737c0.095,1.172-0.461,1.876-1.562,2.191
		C443.167,138.747,442.976,138.792,442.654,138.878z M440.079,137.659c0.964,0,1.792,0.105,2.571-0.043
		c0.438-0.082,0.798-0.584,1.193-0.896c-0.356-0.308-0.681-0.814-1.076-0.875c-0.864-0.135-1.763-0.042-2.688-0.042
		C440.079,136.435,440.079,136.975,440.079,137.659z"/>
</g>
</svg>
